<svg xmlns="http://www.w3.org/2000/svg" version="1.1" xmlns:xlink="http://www.w3.org/1999/xlink" xmlns:svgjs="http://svgjs.dev/svgjs" width="1000" height="707" viewBox="0 0 1000 707"><g transform="matrix(1,0,0,1,-0.6060606060606233,0)"><svg viewBox="0 0 396 280" data-background-color="#0c1d36" preserveAspectRatio="xMidYMid meet" height="707" width="1000" xmlns="http://www.w3.org/2000/svg" xmlns:xlink="http://www.w3.org/1999/xlink"><g id="tight-bounds" transform="matrix(1,0,0,1,0.2400000000000091,0)"><svg viewBox="0 0 395.52 280" height="280" width="395.52"><g><svg viewBox="0 0 395.52 280" height="280" width="395.52"><g><svg viewBox="0 0 395.52 280" height="280" width="395.52"><g><svg viewBox="0 0 395.52 280" height="280" width="395.52"><g><svg viewBox="0 0 395.52 280" height="280" width="395.52"><g transform="matrix(1,0,0,1,81.22880246045696,47.293586941235716)"><svg viewBox="0 0 233.06239507908606 185.41282611752857" height="185.41282611752857" width="233.06239507908606"><g><circle r="82" cx="116.53119753954303" cy="92.70641305876428" fill="#f9f9f9" data-fill-palette-color="accent"></circle><svg version="1.0" xmlns="http://www.w3.org/2000/svg" xmlns:xlink="http://www.w3.org/1999/xlink" x="34.95935926186291" y="34.95935926186291" viewBox="0 0 100 26.299999237060547" enable-background="new 0 0 100 26.299" xml:space="preserve" width="163.14367655536023" height="115.49410759380275" class="icon-o-0" data-fill-palette-color="quaternary" id="o-0"><path d="M76.849 19.098c-1.988 0-3.601 1.612-3.601 3.601s1.612 3.601 3.601 3.601c1.989 0 3.601-1.612 3.601-3.601S78.838 19.098 76.849 19.098zM76.849 24.784c-1.152 0-2.086-0.934-2.086-2.086s0.934-2.086 2.086-2.086 2.086 0.934 2.086 2.086S78.001 24.784 76.849 24.784z" fill="#0c1d36" data-fill-palette-color="quaternary"></path><path d="M17.502 19.098c-1.988 0-3.601 1.612-3.601 3.601s1.612 3.601 3.601 3.601 3.601-1.612 3.601-3.601S19.49 19.098 17.502 19.098zM17.502 24.784c-1.152 0-2.086-0.934-2.086-2.086s0.934-2.086 2.086-2.086 2.086 0.934 2.086 2.086S18.654 24.784 17.502 24.784z" fill="#0c1d36" data-fill-palette-color="quaternary"></path><circle cx="17.502" cy="22.624" r="0.72" fill="#0c1d36" data-fill-palette-color="quaternary"></circle><circle cx="76.849" cy="22.624" r="0.72" fill="#0c1d36" data-fill-palette-color="quaternary"></circle><rect x="18.905" width="26.163" height="3.874" fill="#0c1d36" data-fill-palette-color="quaternary"></rect><polygon points="17.502,0 14.175,2.93 14.175,3.874 18.458,3.874 18.458,0 " fill="#0c1d36" data-fill-palette-color="quaternary"></polygon><rect x="45.515" width="26.163" height="3.874" fill="#0c1d36" data-fill-palette-color="quaternary"></rect><polygon points="73.081,0 76.408,2.93 76.408,3.874 72.125,3.874 72.125,0 " fill="#0c1d36" data-fill-palette-color="quaternary"></polygon><path d="M100 21.316l-1.152-0.968L97.07 4.271H2.104v3.477H3.57c0 0-1.366 2.459-1.615 4.768l-0.757 9.329-1.049 0.059L0 24.138h13.113c-0.149-0.453-0.23-0.937-0.23-1.439 0-2.552 2.068-4.619 4.619-4.619s4.619 2.067 4.619 4.619c0 0.503-0.082 0.986-0.23 1.439h50.568c-0.148-0.453-0.229-0.937-0.229-1.439 0-2.552 2.068-4.619 4.619-4.619s4.619 2.067 4.619 4.619c0 0.503-0.082 0.986-0.23 1.439h5.303l12.24-1.37H100V21.316zM12.386 15.05c0 0.904-0.733 1.639-1.639 1.639H5.532c-0.905 0-1.64-0.734-1.64-1.639v-5.017c0-0.905 0.734-1.639 1.64-1.639h5.215c0.905 0 1.639 0.734 1.639 1.639V15.05zM80.282 8.394h7.351c0.872 0 1.583 0.681 1.635 1.54H78.648C78.7 9.075 79.411 8.394 80.282 8.394zM67.366 8.394h7.351c0.872 0 1.583 0.681 1.634 1.54H65.732C65.784 9.075 66.494 8.394 67.366 8.394zM54.288 8.394h7.675c0.871 0 1.582 0.681 1.634 1.54H52.654C52.706 9.075 53.417 8.394 54.288 8.394zM41.372 8.394h7.674c0.872 0 1.583 0.681 1.635 1.54H39.738C39.79 9.075 40.501 8.394 41.372 8.394zM28.456 8.394h7.674c0.872 0 1.583 0.681 1.635 1.54H26.822C26.874 9.075 27.585 8.394 28.456 8.394zM15.54 8.394h7.674c0.872 0 1.582 0.681 1.634 1.54H13.906C13.958 9.075 14.668 8.394 15.54 8.394zM23.214 16.688H15.54c-0.905 0-1.639-0.734-1.639-1.639v-4.521h10.951v4.521C24.853 15.954 24.119 16.688 23.214 16.688zM36.13 16.688h-7.674c-0.905 0-1.639-0.734-1.639-1.639v-4.521H37.77v4.521C37.77 15.954 37.035 16.688 36.13 16.688zM49.046 16.688h-7.674c-0.905 0-1.639-0.734-1.639-1.639v-4.521h10.952v4.521C50.686 15.954 49.951 16.688 49.046 16.688zM61.963 16.688h-7.675c-0.905 0-1.639-0.734-1.639-1.639v-4.521h10.952v4.521C63.602 15.954 62.867 16.688 61.963 16.688zM74.717 15.198h-7.351c-0.905 0-1.64-0.733-1.64-1.639v-3.03h10.63v3.03C76.356 14.465 75.622 15.198 74.717 15.198zM87.633 15.198h-7.351c-0.905 0-1.639-0.733-1.639-1.639v-3.03h10.629v3.03C89.272 14.465 88.538 15.198 87.633 15.198z" fill="#0c1d36" data-fill-palette-color="quaternary"></path></svg></g></svg></g><path d="M87.717 107.904L86.292 111.879 60.043 102.469 61.468 98.494 72.717 102.527 77.275 89.815 66.025 85.782 67.45 81.807 93.699 91.217 92.274 95.192 80.537 90.984 75.98 103.696ZM101.785 79.726V79.726C100.723 81.411 99.432 82.724 97.913 83.666 96.393 84.607 94.697 85.045 92.824 84.979 90.951 84.913 88.958 84.214 86.846 82.883V82.883L72.119 73.6 74.371 70.028 89.131 79.332C91.198 80.635 93.026 81.096 94.616 80.717 96.205 80.337 97.53 79.305 98.592 77.62V77.62C99.64 75.957 99.993 74.327 99.65 72.73 99.307 71.132 98.102 69.682 96.035 68.379V68.379L81.274 59.075 83.526 55.503 98.253 64.786C100.365 66.117 101.847 67.624 102.701 69.308 103.555 70.992 103.877 72.734 103.669 74.533 103.461 76.333 102.833 78.064 101.785 79.726ZM112.553 65.429L109.51 68.357 90.174 48.265 93.762 44.812 113.437 51.641 107.339 31.746 110.927 28.293 130.263 48.386 127.22 51.314 112.939 36.474 118.315 54.355 115.962 56.62 98.299 50.618ZM142.74 41.585L133.371 47.027 119.364 22.915 128.457 17.633C130.96 16.179 133.195 15.664 135.161 16.088 137.128 16.512 138.624 17.608 139.652 19.376V19.376C140.545 20.915 140.842 22.378 140.543 23.765 140.243 25.153 139.601 26.347 138.616 27.349V27.349C139.642 26.999 140.676 26.89 141.72 27.02 142.763 27.151 143.732 27.51 144.625 28.097 145.519 28.683 146.246 29.459 146.806 30.423V30.423C147.526 31.663 147.872 32.96 147.844 34.312 147.816 35.664 147.383 36.968 146.545 38.222 145.708 39.477 144.439 40.598 142.74 41.585ZM124.736 23.757L129.018 31.128 134.013 28.227C135.413 27.413 136.291 26.465 136.646 25.384 137 24.303 136.844 23.188 136.177 22.04V22.04C135.524 20.914 134.642 20.229 133.531 19.983 132.421 19.737 131.131 20.041 129.662 20.895V20.895ZM130.659 33.953L135.281 41.91 140.517 38.868C141.986 38.014 142.929 37.006 143.344 35.844 143.759 34.681 143.606 33.48 142.886 32.24V32.24C142.165 31 141.17 30.265 139.9 30.035 138.631 29.805 137.272 30.111 135.826 30.951V30.951ZM170.14 30.429L153.421 36.32 144.154 10.02 160.873 4.129 162.012 7.36 149.275 11.848 152.161 20.039 163.771 15.948 164.883 19.104 153.273 23.195 156.265 31.686 169.002 27.198ZM177.556 29.526L173.38 30.155 169.224 2.582 178.717 1.151C180.897 0.822 182.744 0.92 184.26 1.443 185.776 1.967 186.969 2.801 187.84 3.945 188.711 5.09 189.261 6.423 189.491 7.947V7.947C189.748 9.654 189.528 11.271 188.832 12.8 188.136 14.328 186.875 15.539 185.049 16.432V16.432L192.682 27.246 187.837 27.976 180.805 17.676 175.881 18.418ZM173.928 5.458L175.406 15.267 180.488 14.501C182.378 14.216 183.694 13.547 184.435 12.495 185.177 11.444 185.436 10.183 185.215 8.712V8.712C184.993 7.241 184.383 6.132 183.383 5.382 182.384 4.633 180.913 4.405 178.97 4.698V4.698ZM215.467 29.256L211.279 28.714 214.423 4.457 206.246 3.397 206.686 0 227.189 2.657 226.749 6.055 218.611 5ZM229.722 32.421L225.697 31.143 234.138 4.566 243.288 7.472C245.389 8.14 247.004 9.043 248.133 10.181 249.262 11.32 249.965 12.595 250.241 14.007 250.517 15.418 250.422 16.858 249.956 18.326V18.326C249.434 19.971 248.523 21.326 247.223 22.39 245.924 23.454 244.258 23.984 242.225 23.979V23.979L244.301 37.052 239.631 35.569 237.868 23.222 233.122 21.715ZM237.089 9.224L234.087 18.677 238.985 20.233C240.807 20.812 242.283 20.793 243.412 20.176 244.542 19.56 245.331 18.543 245.782 17.125V17.125C246.232 15.708 246.174 14.442 245.608 13.329 245.042 12.216 243.822 11.362 241.949 10.767V10.767ZM248.788 39.956L244.924 37.726 267.762 18.71 271.765 21.019 266.662 50.269 262.797 48.039 264.131 40.944 254.263 35.25ZM267.22 24.192L256.97 32.949 264.768 37.449ZM271.093 54.526L267.946 51.71 286.543 30.932 289.689 33.748 286.108 58.716 300.108 43.072 303.255 45.888 284.658 66.667 281.512 63.851 285.093 38.883ZM291.589 77.491V77.491C290.391 75.835 289.631 74.172 289.309 72.504 288.987 70.835 289.111 69.263 289.681 67.785 290.251 66.307 291.271 65.021 292.74 63.925V63.925L295.355 67.54C294.165 68.433 293.447 69.592 293.199 71.017 292.951 72.442 293.365 73.897 294.439 75.381V75.381C295.388 76.694 296.449 77.492 297.62 77.775 298.792 78.058 299.873 77.842 300.863 77.126V77.126C301.659 76.55 302.176 75.905 302.414 75.192 302.652 74.479 302.711 73.699 302.59 72.852 302.469 72.006 302.25 71.091 301.932 70.108 301.614 69.125 301.287 68.083 300.95 66.983V66.983C300.27 64.82 300.078 62.968 300.373 61.427 300.668 59.887 301.568 58.571 303.074 57.482V57.482C304.328 56.542 305.65 56.036 307.041 55.965 308.431 55.893 309.791 56.221 311.12 56.947 312.448 57.674 313.65 58.78 314.724 60.265V60.265C315.782 61.728 316.443 63.208 316.707 64.705 316.971 66.203 316.85 67.61 316.343 68.926 315.837 70.243 314.957 71.371 313.703 72.311V72.311L311.088 68.696C311.669 68.276 312.114 67.724 312.424 67.042 312.733 66.359 312.85 65.603 312.774 64.773 312.698 63.943 312.356 63.108 311.749 62.269V62.269C310.992 61.178 310.081 60.485 309.016 60.19 307.951 59.895 306.923 60.106 305.933 60.822V60.822C305.051 61.46 304.56 62.209 304.46 63.068 304.36 63.927 304.481 64.921 304.823 66.05 305.165 67.18 305.551 68.473 305.983 69.931V69.931C306.427 71.314 306.709 72.634 306.831 73.89 306.953 75.146 306.785 76.341 306.327 77.475 305.869 78.609 304.995 79.643 303.704 80.577V80.577C302.563 81.402 301.293 81.878 299.894 82.005 298.495 82.133 297.068 81.837 295.614 81.119 294.161 80.4 292.819 79.191 291.589 77.491ZM301.138 91.809L299.107 88.107 323.556 74.697 325.587 78.399ZM306.482 105.885L305.007 101.928 327.925 93.382 325.043 85.656 328.253 84.459 335.477 103.831 332.267 105.028 329.4 97.339ZM69.1 186.468L67.671 182.484 93.993 173.04 95.422 177.024 84.145 181.07 88.719 193.818 99.996 189.772 101.426 193.756 75.104 203.2 73.674 199.216 85.448 194.992 80.874 182.243ZM84.267 219.048V219.048C83.2 217.358 82.568 215.621 82.37 213.839 82.182 212.058 82.519 210.335 83.383 208.667 84.256 207.002 85.751 205.502 87.868 204.167V204.167L102.634 194.853 104.892 198.433 90.092 207.768C88.02 209.075 86.81 210.529 86.461 212.13 86.122 213.733 86.486 215.38 87.552 217.07V217.07C88.604 218.738 89.925 219.762 91.514 220.141 93.112 220.522 94.948 220.059 97.02 218.752V218.752L111.82 209.418 114.078 212.998 99.311 222.311C97.194 223.646 95.188 224.335 93.291 224.377 91.404 224.422 89.688 223.961 88.145 222.995 86.611 222.032 85.318 220.716 84.267 219.048ZM98.858 236.524L95.807 233.591 115.19 213.433 118.787 216.891 112.712 236.873 132.412 229.993 136.008 233.451 116.625 253.609 113.574 250.675 127.891 235.787 110.176 241.867 107.814 239.596 113.147 221.665ZM132.873 263.236L123.475 257.783 137.51 233.595 146.632 238.888C149.142 240.344 150.701 242.036 151.31 243.963 151.916 245.881 151.705 247.727 150.675 249.501V249.501C149.779 251.046 148.654 252.032 147.301 252.46 145.938 252.89 144.578 252.925 143.22 252.567V252.567C144.032 253.284 144.643 254.13 145.052 255.104 145.452 256.081 145.619 257.103 145.553 258.17 145.487 259.237 145.172 260.255 144.609 261.226V261.226C143.889 262.466 142.933 263.412 141.741 264.064 140.553 264.71 139.202 264.982 137.688 264.879 136.183 264.773 134.578 264.225 132.873 263.236ZM139.446 238.691L135.158 246.082 140.171 248.991C141.572 249.804 142.833 250.098 143.954 249.873 145.069 249.645 145.961 248.954 146.631 247.799V247.799C147.284 246.674 147.444 245.565 147.11 244.474 146.767 243.384 145.861 242.413 144.391 241.56V241.56ZM133.513 248.916L128.88 256.901 134.135 259.95C135.605 260.803 136.95 261.123 138.171 260.91 139.39 260.689 140.359 259.958 141.079 258.717V258.717C141.802 257.471 141.948 256.24 141.518 255.023 141.086 253.797 140.146 252.764 138.699 251.925V251.925ZM163.66 275.933L146.891 270.033 156.172 243.653 172.941 249.553 171.801 252.794 159.024 248.299 156.132 256.519 167.772 260.614 166.661 263.771 155.022 259.675 152.024 268.196 164.8 272.691ZM174.657 277.72L170.471 277.091 174.628 249.437 184.151 250.868C186.331 251.196 188.072 251.834 189.373 252.781 190.673 253.735 191.57 254.887 192.066 256.238 192.56 257.594 192.693 259.034 192.464 260.557V260.557C192.206 262.271 191.519 263.759 190.403 265.021 189.281 266.276 187.716 267.064 185.707 267.387V267.387L189.823 280 184.968 279.27 181.265 267.323 176.331 266.582ZM178.285 253.582L176.806 263.42 181.898 264.186C183.795 264.471 185.256 264.221 186.281 263.435 187.3 262.641 187.92 261.506 188.142 260.029V260.029C188.363 258.558 188.107 257.314 187.374 256.298 186.633 255.287 185.287 254.634 183.337 254.341V254.341ZM218.031 278.034L213.834 278.579 210.679 254.254 202.472 255.318 202.03 251.911 222.592 249.244 223.034 252.651 214.876 253.709ZM235.705 274.111L231.671 275.392 223.206 248.739 232.385 245.824C234.486 245.157 236.329 244.962 237.914 245.238 239.502 245.521 240.816 246.159 241.856 247.153 242.898 248.152 243.652 249.386 244.118 250.854V250.854C244.642 252.506 244.682 254.144 244.237 255.769 243.783 257.39 242.726 258.788 241.065 259.963V259.963L250.322 269.469 245.643 270.955 237.051 261.865 232.295 263.376ZM228.316 250.846L231.328 260.329 236.235 258.77C238.064 258.189 239.265 257.32 239.837 256.163 240.402 255.002 240.458 253.709 240.006 252.285V252.285C239.556 250.868 238.778 249.865 237.671 249.276 236.56 248.695 235.065 248.703 233.186 249.3V249.3ZM258.668 264.858L254.786 267.098 249.737 237.724 253.757 235.405 276.584 254.519 272.711 256.754 267.217 252.037 257.324 257.746ZM254.231 240.949L256.69 254.237 264.505 249.727ZM284.284 247.892L281.131 250.715 262.48 229.878 265.634 227.055 290.123 233.39 276.082 217.703 279.236 214.88 297.886 235.717 294.733 238.54 270.243 232.205ZM308.402 222.326V222.326C307.204 223.983 305.861 225.228 304.374 226.062 302.886 226.895 301.349 227.27 299.761 227.187 298.17 227.11 296.625 226.545 295.124 225.493V225.493L297.751 221.862C298.971 222.712 300.3 223.033 301.736 222.826 303.17 222.61 304.424 221.76 305.498 220.275V220.275C306.451 218.957 306.879 217.697 306.781 216.495 306.682 215.285 306.137 214.321 305.147 213.605V213.605C304.351 213.03 303.574 212.738 302.817 212.732 302.066 212.729 301.305 212.92 300.534 213.305 299.768 213.685 298.966 214.182 298.128 214.797 297.288 215.403 296.399 216.038 295.46 216.702V216.702C293.614 218.03 291.909 218.796 290.344 219 288.788 219.202 287.255 218.757 285.743 217.664V217.664C284.452 216.763 283.555 215.664 283.052 214.366 282.544 213.064 282.428 211.665 282.706 210.17 282.985 208.675 283.661 207.186 284.734 205.701V205.701C285.797 204.232 286.999 203.135 288.343 202.411 289.688 201.696 291.066 201.369 292.479 201.433 293.894 201.505 295.243 201.99 296.529 202.886V202.886L293.908 206.51C293.327 206.089 292.662 205.842 291.913 205.767 291.163 205.683 290.405 205.807 289.641 206.139 288.876 206.471 288.188 207.06 287.578 207.904V207.904C286.778 208.965 286.403 210.05 286.453 211.159 286.512 212.267 287.036 213.179 288.026 213.895V213.895C288.914 214.537 289.781 214.771 290.628 214.597 291.479 214.417 292.387 213.988 293.353 213.31 294.319 212.632 295.431 211.859 296.689 210.991V210.991C297.868 210.131 299.035 209.447 300.19 208.938 301.348 208.424 302.54 208.209 303.766 208.293 304.987 208.372 306.245 208.881 307.542 209.819V209.819C308.682 210.644 309.535 211.702 310.099 212.996 310.658 214.285 310.825 215.737 310.599 217.352 310.368 218.962 309.636 220.621 308.402 222.326ZM318.485 205.383L316.449 209.094 291.932 195.642 293.968 191.931ZM325.011 188.728L323.531 192.693 300.55 184.116 297.656 191.87 294.438 190.668 301.688 171.243 304.907 172.444 302.03 180.151ZM68.682 143.837C68.682 142.042 70.137 140.587 71.933 140.587 73.728 140.587 75.183 142.042 75.183 143.837 75.183 145.632 73.728 147.087 71.933 147.087 70.137 147.087 68.682 145.632 68.682 143.837ZM319.653 143.837C319.653 142.042 321.109 140.587 322.904 140.587 324.699 140.587 326.154 142.042 326.154 143.837 326.154 145.632 324.699 147.087 322.904 147.087 321.109 147.087 319.653 145.632 319.653 143.837Z" fill="#f9cc0b" data-fill-palette-color="primary"></path></svg></g></svg></g></svg></g><g></g></svg></g><defs></defs></svg><rect width="395.52" height="280" fill="none" stroke="none" visibility="hidden"></rect></g></svg></g></svg>